# xmcd CD database file generated by Grip 3.2.0
# 
# Track frame offsets:
#       150
#       9573
#       22668
#       31657
#       52958
#       67160
#       83196
#       93214
#       112560
#       138030
#       148128
#       163303
#       187597
#       197274
#       210245
#       221923
# 
# Disc length: 3153 seconds
# 
# Revision: 1
# Processed by: cddbd v1.5.1PL0 Copyright (c) Steve Scherf et al.
# Submitted via: Grip 3.2.0
# 
DISCID=c20c4f10
DTITLE=Squonk Opera - Rodeo Smackdown
DYEAR=2004
DGENRE=Opera
TTITLE0=The Range
TTITLE1=Shape of Desire
TTITLE2=Cowboy Nation
TTITLE3=The Accident
TTITLE4=Little Thorn
TTITLE5=The Rider of the Bull
TTITLE6=Bad Mood
TTITLE7=Cowboy Without a Horse
TTITLE8=Princess Bubbles
TTITLE9=The Do-Si-Do Waltz
TTITLE10=Thread of Love
TTITLE11=Heromonster
TTITLE12=I've Got My Man
TTITLE13=Unraveling
TTITLE14=Cowboy Gone Loco
TTITLE15=Build Your Own Labyrinth
EXTD=
EXTT0=
EXTT1=
EXTT2=
EXTT3=
EXTT4=
EXTT5=
EXTT6=
EXTT7=
EXTT8=
EXTT9=
EXTT10=
EXTT11=
EXTT12=
EXTT13=
EXTT14=
EXTT15=
PLAYORDER=
